HIERARCHY
ROOT Hips
{
   OFFSET 0.00000 0.00000 0.00000
   CHANNELS 6 Xposition Yposition Zposition Zrotation Xrotation Yrotation
   JOINT RightUpLeg
   {
      OFFSET -8.945800 -8.667070 0.101652
      CHANNELS 3 Zrotation Xrotation Yrotation
      JOINT RightLeg
      {
         OFFSET 0.000000 -44.422697 1.372700
         CHANNELS 3 Zrotation Xrotation Yrotation
         JOINT RightFoot
         {
            OFFSET 0.253549 -42.092399 -1.460590
            CHANNELS 3 Zrotation Xrotation Yrotation
            JOINT RightToes
            {
               OFFSET 0.040000 -4.415090 8.499099
               CHANNELS 3 Zrotation Xrotation Yrotation
               End Site
               {
                  OFFSET -0.080000 -0.137448 9.779790
               }
            }
         }
      }
   }
   JOINT Spine
   {
      OFFSET 0.000000 11.890501 0.000000
      CHANNELS 3 Zrotation Xrotation Yrotation
      JOINT Spine1
      {
         OFFSET 0.000000 25.657401 0.127663
         CHANNELS 3 Zrotation Xrotation Yrotation
         JOINT HEad
         {
            OFFSET 0.000000 8.734161 0.011341
            CHANNELS 3 Zrotation Xrotation Yrotation
            End Site
            {
               OFFSET -0.290000 12.774200 2.513950
            }
         }
         JOINT LeftShoulder1
         {
            OFFSET 8.990000 -0.362252 -0.220000
            CHANNELS 3 Zrotation Xrotation Yrotation
            JOINT LeftArm
            {
               OFFSET 10.282700 -0.003380 0.322123
               CHANNELS 3 Zrotation Xrotation Yrotation
               JOINT LeftForeArm
               {
                  OFFSET 32.766900 0.099144 -1.424340
                  CHANNELS 3 Zrotation Xrotation Yrotation
                  JOINT LeftHand
                  {
                     OFFSET 27.564301 0.085362 1.022160
                     CHANNELS 3 Zrotation Xrotation Yrotation
                     End Site
                     {
                        OFFSET 16.744301 -0.600000 1.502910
                     }
                  }
               }
            }
         }
         JOINT RightShoulder
         {
            OFFSET -8.990000 -0.362252 -0.220000
            CHANNELS 3 Zrotation Xrotation Yrotation
            JOINT RightArm
            {
               OFFSET -10.282700 -0.003380 0.322123
               CHANNELS 3 Zrotation Xrotation Yrotation
               JOINT RightForeArm
               {
                  OFFSET -32.897098 0.099144 -1.424340
                  CHANNELS 3 Zrotation Xrotation Yrotation
                  JOINT RightHand
                  {
                     OFFSET -27.492101 0.085362 1.022160
                     CHANNELS 3 Zrotation Xrotation Yrotation
                     End Site
                     {
                        OFFSET -16.631201 -0.600000 1.502910
                     }
                  }
               }
            }
         }
      }
   }
   JOINT LeftUpLeg
   {
      OFFSET 8.945800 -8.667070 0.101652
      CHANNELS 3 Zrotation Xrotation Yrotation
      JOINT LeftLeg
      {
         OFFSET 0.000000 -44.422697 1.372700
         CHANNELS 3 Zrotation Xrotation Yrotation
         JOINT LeftFoot
         {
            OFFSET -0.253549 -42.092399 -1.460590
            CHANNELS 3 Zrotation Xrotation Yrotation
            JOINT LeftToes
            {
               OFFSET -0.040000 -4.415090 8.499099
               CHANNELS 3 Zrotation Xrotation Yrotation
               End Site
               {
                  OFFSET 0.080000 -0.047448 9.779790
               }
            }
         }
      }
   }
}
MOTION
Frames: 6
Frame Time: 0.016667
-217.735173 102.300623 394.316820 31.627071 29.308161 85.417328 -26.258363 19.164531 6.578631 16.376029 7.269393 2.740350 -50.571831 19.967302 27.176162 3.055521 3.421259 -45.730036 -41.533137 21.987670 12.764478 -5.069893 24.636060 -8.311571 -35.815162 16.514976 -1.025373 -8.671901 -15.474208 -5.576601 -48.674015 -57.425656 -76.750392 -5.329850 31.570210 -39.593008 22.848752 -11.670890 -26.209773 -52.880738 56.736998 106.460683 103.355037 158.433519 191.893741 -28.955446 243.115147 45.880020 6.231468 -13.704722 44.460054 5.732499 4.185247 -37.970989 -38.374824 2.640591 161.675004 -19.793656 27.128364 8.332825 11.289457 -8.201070 -52.190384
-215.888421 101.273306 394.667238 35.213768 30.913822 82.864599 -28.479713 19.998980 11.558318 16.700383 11.339794 -2.311381 -51.183679 16.325880 26.508263 2.560091 2.296574 -46.342646 -43.103466 21.350949 17.099420 -3.430483 28.542135 -8.373464 -36.176230 17.490275 -2.684430 -8.357222 -12.295093 -8.582959 -35.240006 -56.473442 -61.272917 4.673664 24.428332 -39.689867 20.679251 -16.937119 -43.236330 -53.426812 57.145126 105.251849 102.398640 155.628223 190.180129 -25.895971 244.107655 47.281899 -0.296554 -12.371972 42.421680 3.127371 5.599255 -26.612886 -34.236743 11.244114 149.109163 -29.249076 29.885114 9.376846 12.514869 -6.730062 -52.482381
-213.930108 100.286320 394.975771 40.688386 31.386256 79.187608 -30.148124 22.768902 18.055192 16.777996 15.287628 -8.057590 -52.019421 13.145701 25.880007 1.931928 0.747168 -47.299139 -42.472104 20.175279 21.761263 -2.033523 32.534271 -8.273793 -36.690666 17.799760 -3.721257 -8.087052 -9.003956 -11.543900 -20.287219 -52.090137 -45.079334 11.171839 15.104103 -38.947935 15.970835 -15.439834 -21.607063 -53.617627 57.239007 105.316756 102.408120 151.997664 189.256906 -23.535952 243.037310 49.611205 4.905527 -6.808548 39.362069 2.648840 8.092943 -11.510893 -27.905687 20.400339 133.398198 -42.120954 32.788948 11.830311 14.009906 -4.825836 -52.166768
-212.087971 99.738463 395.339350 46.454668 31.006327 75.682970 -30.752066 25.992809 25.027396 17.347902 18.866791 -13.809280 -52.229924 10.834793 24.860017 1.840688 -0.457371 -49.015961 -42.600429 19.852119 27.580171 -2.036668 35.922612 -6.883674 -38.821941 16.514776 -3.303369 -7.435389 -5.896545 -15.399517 -7.704283 -45.137957 -31.135486 13.858916 3.789090 -35.083547 10.418264 -20.279610 -42.934115 -58.036602 56.964529 104.698993 102.121881 146.922792 187.253270 -21.737811 242.522368 48.814139 3.366550 -4.237375 34.683946 5.812546 7.908925 6.460220 -19.338303 25.653526 113.521337 -32.499857 35.601610 10.815001 15.191898 -3.131774 -52.078116
-210.193860 99.118746 395.785974 50.581338 30.034159 72.513400 -31.220132 28.470342 30.910646 18.203351 21.459355 -19.555672 -50.296058 8.198910 23.859592 1.633777 -2.122612 -50.980293 -41.396902 22.492747 29.116656 -1.534984 36.799191 -6.544667 -40.751559 12.965478 -1.997083 -8.081296 -1.925977 -20.314893 -0.564853 -36.080140 -17.266909 14.605403 -8.842853 -25.460596 8.212596 -15.845795 -18.279149 -61.188707 55.152422 106.207932 102.648625 143.354852 186.196093 -20.267840 240.067762 50.908146 7.152960 -1.272949 34.247310 8.762658 7.292041 22.650961 -8.384965 26.435206 93.061915 -33.311338 35.942323 9.872910 17.442076 -0.030743 -50.581605
-208.098504 98.316592 396.287569 53.250614 30.094835 70.316272 -31.836328 30.271559 36.105111 18.993815 23.440256 -24.786229 -48.436590 5.661289 23.256183 1.405077 -3.864505 -52.683544 -38.101490 27.647641 27.681773 -1.559670 37.155799 -7.273078 -42.878664 7.159739 0.068373 -10.101492 -0.803060 -26.371415 3.031035 -29.434977 -6.682649 13.038376 -20.893976 -20.721283 4.308560 -20.019756 -35.075897 -64.929042 54.111334 108.095790 104.580148 138.356956 186.218209 -17.986367 237.896718 59.079996 5.805518 -1.247172 40.189666 12.622934 5.973616 36.913337 -0.850237 20.414124 77.373216 -33.046887 39.405021 9.944118 21.196908 4.780154 -47.612644
